<?xml version="1.0" encoding="utf-8"?>
<!-- Generator: Adobe Illustrator 23.1.0, SVG Export Plug-In . SVG Version: 6.00 Build 0)  -->
<svg version="1.1" id="Слой_1" xmlns="http://www.w3.org/2000/svg" xmlns:xlink="http://www.w3.org/1999/xlink" x="0px" y="0px"
	 viewBox="0 0 100 100" style="enable-background:new 0 0 100 100;" xml:space="preserve">
<style type="text/css">
	.st0{fill:#FFFFFF;stroke:#000000;stroke-miterlimit:10;}
	.st1{fill:none;stroke:#000000;stroke-miterlimit:10;}
</style>
<circle class="st0" cx="33.6" cy="19.3" r="14.5"/>
<circle class="st0" cx="61.4" cy="21.7" r="12"/>
<rect x="26.9" y="33.7" class="st0" width="40.2" height="17.4"/>
<line class="st1" x1="67" y1="42.3" x2="82.6" y2="33.7"/>
<line class="st1" x1="82.6" y1="50.3" x2="67" y2="41.5"/>
<circle class="st1" cx="33.6" cy="19.3" r="3.5"/>
<circle class="st1" cx="61.7" cy="22" r="2.7"/>
<line class="st1" x1="82.6" y1="32.9" x2="82.6" y2="51.1"/>
<line class="st1" x1="46.9" y1="51.1" x2="67" y2="90"/>
<line class="st1" x1="48" y1="51.1" x2="27.9" y2="90"/>
<line class="st1" x1="48" y1="91" x2="48" y2="50.3"/>
<path class="st1" d="M27.2,89.7c2.1,1.1,5.8,2.4,10.3,2.7s8.2-1.1,10.5-1.9"/>
<path class="st1" d="M47.4,90.1c2.1,0.8,5.7,1.8,10.1,1.8c4.4,0.1,8-1.1,10.3-1.8"/>
<line class="st1" x1="31.3" y1="83.8" x2="48" y2="83.5"/>
<line class="st1" x1="48" y1="76.3" x2="34.6" y2="76.3"/>
<line class="st1" x1="39.4" y1="67.5" x2="48" y2="67.5"/>
<line class="st1" x1="47.7" y1="76.6" x2="59.8" y2="76"/>
<line class="st1" x1="55.2" y1="67.2" x2="48" y2="67.2"/>
<line class="st1" x1="48.3" y1="83.7" x2="63.8" y2="83.4"/>
</svg>
